<?xml version="1.0" encoding="UTF-8" standalone="no"?>
<!DOCTYPE svg PUBLIC "-//W3C//DTD SVG 1.1//EN" "http://www.w3.org/Graphics/SVG/1.1/DTD/svg11.dtd">
<svg xmlns="http://www.w3.org/2000/svg" version="1.1" viewBox="0.00 0.00 180.00 180.00">
<path fill="#000000" d="
  M 88.13 0.00
  L 91.79 0.00
  C 141.09 1.98 177.37 39.14 180.00 88.34
  L 180.00 92.55
  Q 179.55 96.13 179.18 99.72
  C 174.47 145.55 136.28 178.33 90.92 180.00
  L 88.46 180.00
  C 39.40 177.44 2.28 141.66 0.00 91.90
  L 0.00 87.98
  C 2.59 39.09 39.09 1.99 88.13 0.00
  Z
  M 52.35 69.94
  A 0.87 0.87 0.0 0 1 51.85 68.65
  C 73.22 33.66 124.99 43.05 132.72 83.00
  C 136.57 102.92 124.94 123.60 106.31 131.12
  C 85.46 139.55 63.70 131.73 51.72 112.71
  C 50.81 111.27 49.14 109.56 47.57 110.31
  C 45.05 111.53 37.95 113.56 40.30 117.69
  C 64.01 159.33 125.72 155.53 142.38 109.88
  C 154.32 77.17 133.18 41.01 98.94 35.34
  C 74.76 31.33 52.50 42.86 40.18 64.00
  Q 39.92 64.44 39.45 64.24
  L 34.58 62.12
  A 1.84 1.84 0.0 0 0 32.05 64.22
  Q 34.28 73.89 36.78 83.94
  C 37.27 85.91 38.19 86.66 40.11 85.42
  Q 47.93 80.31 55.74 75.13
  C 59.89 72.38 54.18 70.45 52.35 69.94
  Z"
/>
</svg>
